<svg width="20" height="20" viewBox="0 0 20 20" fill="none" xmlns="http://www.w3.org/2000/svg">
<path d="M4.83333 16C4.83333 16.9167 5.58333 17.6667 6.5 17.6667H13.1667C14.0833 17.6667 14.8333 16.9167 14.8333 16V6.00002H4.83333V16ZM7.475 10.6584C7.31919 10.5025 7.23165 10.2912 7.23165 10.0709C7.23165 9.8505 7.31919 9.63917 7.475 9.48335C7.63081 9.32754 7.84214 9.24 8.0625 9.24C8.28286 9.24 8.49419 9.32754 8.65 9.48335L9.83333 10.6584L11.0083 9.48335C11.1641 9.32754 11.3755 9.24 11.5958 9.24C11.8162 9.24 12.0275 9.32754 12.1833 9.48335C12.3391 9.63917 12.4267 9.8505 12.4267 10.0709C12.4267 10.2912 12.3391 10.5025 12.1833 10.6584L11.0083 11.8334L12.1833 13.0084C12.2605 13.0855 12.3217 13.1771 12.3634 13.2779C12.4052 13.3787 12.4267 13.4867 12.4267 13.5959C12.4267 13.705 12.4052 13.813 12.3634 13.9138C12.3217 14.0146 12.2605 14.1062 12.1833 14.1834C12.1062 14.2605 12.0146 14.3217 11.9138 14.3635C11.813 14.4052 11.7049 14.4267 11.5958 14.4267C11.4867 14.4267 11.3787 14.4052 11.2779 14.3635C11.1771 14.3217 11.0855 14.2605 11.0083 14.1834L9.83333 13.0084L8.65833 14.1834C8.58118 14.2605 8.48959 14.3217 8.38879 14.3635C8.28798 14.4052 8.17994 14.4267 8.07083 14.4267C7.96172 14.4267 7.85368 14.4052 7.75288 14.3635C7.65208 14.3217 7.56049 14.2605 7.48333 14.1834C7.40618 14.1062 7.34498 14.0146 7.30323 13.9138C7.26147 13.813 7.23998 13.705 7.23998 13.5959C7.23998 13.4867 7.26147 13.3787 7.30323 13.2779C7.34498 13.1771 7.40618 13.0855 7.48333 13.0084L8.65833 11.8334L7.475 10.6584ZM14.8333 3.50002H12.75L12.1583 2.90835C12.0083 2.75835 11.7917 2.66669 11.575 2.66669H8.09167C7.875 2.66669 7.65833 2.75835 7.50833 2.90835L6.91667 3.50002H4.83333C4.375 3.50002 4 3.87502 4 4.33335C4 4.79169 4.375 5.16669 4.83333 5.16669H14.8333C15.2917 5.16669 15.6667 4.79169 15.6667 4.33335C15.6667 3.87502 15.2917 3.50002 14.8333 3.50002Z" fill="#333333"/>
</svg>
