<svg width="20" height="20" viewBox="0 0 20 20" fill="none" xmlns="http://www.w3.org/2000/svg">
<path d="M4.16667 2.5C3.24167 2.5 2.5 3.24167 2.5 4.16667V15.8333C2.5 16.2754 2.67559 16.6993 2.98816 17.0118C3.30072 17.3244 3.72464 17.5 4.16667 17.5H15.8333C16.2754 17.5 16.6993 17.3244 17.0118 17.0118C17.3244 16.6993 17.5 16.2754 17.5 15.8333V10H15.8333V15.8333H4.16667V4.16667H10V2.5H4.16667ZM14.8167 3.33333C14.6667 3.3346 14.5232 3.39441 14.4167 3.5L13.4 4.50833L15.4833 6.59167L16.5 5.58333C16.7167 5.36667 16.7167 5 16.5 4.79167L15.2083 3.5C15.1 3.39167 14.9583 3.33333 14.8167 3.33333ZM12.8083 5.1L6.66667 11.25V13.3333H8.75L14.8917 7.18333L12.8083 5.1V5.1Z" fill="#333333"/>
</svg>
